<svg width="35" height="25" viewBox="0 0 35 25" fill="none" xmlns="http://www.w3.org/2000/svg">
<path d="M0 0H35V25H0V0Z" fill="#012169"/>
<path d="M4.10156 0L17.4453 9.42708L30.7344 0H35V3.22917L21.875 12.5521L35 21.8229V25H30.625L17.5 15.6771L4.42969 25H0V21.875L13.0703 12.6042L0 3.33333V0H4.10156Z" fill="white"/>
<path d="M23.1875 14.6354L35 22.9167V25L20.1797 14.6354H23.1875ZM13.125 15.6771L13.4531 17.5L2.95312 25H0L13.125 15.6771ZM35 0V0.15625L21.3828 9.94792L21.4922 7.65625L32.2656 0H35ZM0 0L13.0703 9.16667H9.78906L0 2.1875V0Z" fill="#C8102E"/>
<path d="M13.1797 0V25H21.9297V0H13.1797ZM0 8.33333V16.6667H35V8.33333H0Z" fill="white"/>
<path d="M0 10.0521V15.0521H35V10.0521H0ZM14.9297 0V25H20.1797V0H14.9297Z" fill="#C8102E"/>
</svg>
